<?xml version="1.0" encoding="UTF-8"?>
<!-- Generated by Pixelmator Pro 3.6 -->
<svg width="1863" height="1863" viewBox="0 0 1863 1863" xmlns="http://www.w3.org/2000/svg">
    <path id="Path" fill="#e6e3db" stroke="none" d="M 607.5 0 L 1255.5 0 L 1255.5 101.25 L 1458 101.25 L 1458 202.5 L 1559.25 202.5 L 1559.25 303.75 L 1660.5 303.75 L 1660.5 405 L 1761.75 405 L 1761.75 607.5 L 1863 607.5 L 1863 1248.75 L 1761.75 1248.75 L 1761.75 1458 L 1660.5 1458 L 1660.5 1559.25 L 1559.25 1559.25 L 1559.25 1660.5 L 1458 1660.5 L 1458 1761.75 L 1255.802368 1761.75 L 1255.802368 1863 L 607.5 1863 L 607.5 1761.75 L 405 1761.75 L 405 1660.5 L 303.75 1660.5 L 303.75 1559.25 L 202.5 1559.25 L 202.5 1464.75 L 195.75 1464.75 L 195.626617 1458 L 101.25 1458 L 101.25 1255.5 L 0 1255.5 L 0 607.5 L 101.25 607.5 L 101.25 405 L 202.5 405 L 202.5 303.75 L 303.75 303.75 L 303.75 202.5 L 405 202.5 L 405 101.25 L 607.5 101.25 L 607.5 0 Z"/>
    <path id="path1" fill="#000000" stroke="none" d="M 1181.25 526.5 L 1289.25 526.5 L 1289.25 1039.5 L 1188 1039.5 L 1188 1140.75 L 1086.75 1140.75 L 1086.75 1242 L 985.5 1242 L 985.5 1343.25 L 877.5 1343.25 L 877.5 1242 L 776.25 1242 L 776.25 1140.75 L 675 1140.75 L 675 1039.5 L 573.75 1039.5 L 573.75 526.5 L 681.75 526.5 L 681.75 627.75 L 783 627.75 L 783 729 L 884.25 729 L 884.25 830.25 L 978.75 830.25 L 978.75 729 L 1080 729 L 1080 627.75 L 1181.25 627.75 L 1181.25 526.5 Z"/>
</svg>
